<svg width="24" height="24" xmlns="http://www.w3.org/2000/svg"><path fill-rule="evenodd" clip-rule="evenodd" d="M3 7a1 1 0 1 0 0 2 1 1 0 0 0 0-2zM0 8a3 3 0 0 1 5.83-1h3.34a3.001 3.001 0 0 1 5.66 0h3.34A3.001 3.001 0 0 1 24 8a3 3 0 0 1-5.77 1.156 1.662 1.662 0 0 0-.342.201c-.335.257-.727.76-.902 1.807-.102.615-.108 1.35-.115 2.2l-.001.13c-.008.856-.021 1.831-.201 2.696-.181.87-.566 1.802-1.452 2.389a3.048 3.048 0 0 1-.314.182 3.001 3.001 0 0 1-5.806 0 3.043 3.043 0 0 1-.314-.182c-.887-.587-1.27-1.519-1.452-2.389-.18-.865-.193-1.84-.2-2.697l-.002-.13c-.007-.85-.013-1.584-.115-2.199-.175-1.046-.567-1.55-.902-1.807a1.662 1.662 0 0 0-.343-.201A3 3 0 0 1 0 8zm8.375 1c.28.506.491 1.114.611 1.836.13.776.137 1.662.143 2.458l.001.182c.008.89.026 1.667.16 2.307.05.242.112.439.183.6A2.998 2.998 0 0 1 12 15c1.061 0 1.994.551 2.527 1.383.071-.161.133-.358.184-.6.133-.64.151-1.417.159-2.307l.001-.182c.006-.796.013-1.682.143-2.458.12-.722.33-1.33.61-1.836h-.795a3.001 3.001 0 0 1-5.658 0h-.796zM12 17a1 1 0 1 0 0 2 1 1 0 0 0 0-2zm-1-9a1 1 0 1 1 2 0 1 1 0 0 1-2 0zm10-1a1 1 0 1 0 0 2 1 1 0 0 0 0-2z" fill="#343A3C"/></svg>