<svg width="16" height="16" xmlns="http://www.w3.org/2000/svg"><g fill="none"><path fill-rule="evenodd" clip-rule="evenodd" d="M1 3a2 2 0 0 1 2-2h10a2 2 0 0 1 2 2v10a2 2 0 0 1-2 2H3a2 2 0 0 1-2-2V3z" fill="#FC9535"/><path fill-rule="evenodd" clip-rule="evenodd" d="M8 13a1 1 0 1 0 0-2 1 1 0 0 0 0 2z" fill="#fff"/><path d="M7.866 9.125c0-1.125 2.433-2.213 2.231-3.687-.149-1.087-1.176-1.631-2.256-1.556-1.08.075-1.676.701-1.962 1.019" stroke-width="1.75" stroke-linecap="round" stroke="#fff"/></g></svg>