<svg width="24" height="24" xmlns="http://www.w3.org/2000/svg"><g data-name="Canvas"><g data-name="Icons / 24px / Dashboard" clip-path="url(#clip0)" fill="none"><path fill-rule="evenodd" clip-rule="evenodd" d="M9 4H5a2 2 0 0 0-2 2v8a2 2 0 0 0 2 2h4a2 2 0 0 0 2-2V6a2 2 0 0 0-2-2zM5 14V6h4v8H5zM15 4h4a2 2 0 0 1 2 2v12a2 2 0 0 1-2 2h-4a2 2 0 0 1-2-2V6a2 2 0 0 1 2-2zm0 14V6h4v12h-4z" fill="#343A3C" data-name="Shape"/></g></g><defs><clipPath id="clip0"><path fill="#fff" d="M0 0h24v24H0z"/></clipPath></defs></svg>